# xmcd CD database file
#
# Track frame offsets:
#	170
#	17711
#	37371
#	55496
#	105402
#	130624
#	156014
#	196789
#	225025
#	230446
#	238132
#	263372
#
# Disc length: 3817 seconds
#
# Revision: 1
# Processed by: cddbd v1.5PL3 Copyright (c) Steve Scherf et al.
# Submitted via: CDex 1.51
#
DISCID=8c0ee70c
DTITLE=Joe and Mat Maneri - Blessed
DYEAR=1998
DGENRE=Jazz
TTITLE0=At The Gate
TTITLE1=There Are No Doors
TTITLE2=Sity-One Joys
TTITLE3=From Loosened Soil
TTITLE4=Five Fantasies
TTITLE5=Never Said A Mumblin' Word
TTITLE6=Is Nothing Near?
TTITLE7=Body And Soul
TTITLE8=Race You Home
TTITLE9=Gardenias For Gardenis
TTITLE10=Outside The Whole Thing
TTITLE11=Blessed
EXTD=YEAR: 1998
EXTT0=
EXTT1=
EXTT2=
EXTT3=
EXTT4=
EXTT5=
EXTT6=
EXTT7=
EXTT8=
EXTT9=
EXTT10=
EXTT11=
PLAYORDER=
